<?xml version="1.0" encoding="utf-8"?>
<!-- Generator: Adobe Illustrator 24.3.0, SVG Export Plug-In . SVG Version: 6.00 Build 0)  -->
<svg version="1.1" id="Layer_1" xmlns="http://www.w3.org/2000/svg" xmlns:xlink="http://www.w3.org/1999/xlink" x="0px" y="0px"
	 viewBox="0 0 336.2 336" style="enable-background:new 0 0 336.2 336;" xml:space="preserve">
<style type="text/css">
	.st0{fill:#FFFFFF;}
</style>
<g>
	<path class="st0" d="M211.3,167.6c-1.5-1.3-2.7-2.2-3.7-3.3c-35.5-35.5-71.1-71-106.5-106.6c-2.2-2.2-3.9-5.2-4.7-8.2
		c-1.2-4.6,1.6-9.6,5.8-12c4.3-2.4,9.5-2,13.4,1c1.1,0.9,2,1.9,3,2.8c38.7,38.7,77.4,77.4,116.1,116.1c7.4,7.4,7.4,13.5,0,20.9
		c-38.9,38.9-77.7,77.8-116.7,116.5c-2.2,2.2-5.2,4-8.2,4.8c-4.6,1.3-9.6-1.5-12-5.7c-2.4-4.2-2.1-9.5,0.9-13.4
		c0.9-1.2,2-2.2,3.1-3.3c35.4-35.4,70.8-70.9,106.3-106.3C209,170.1,209.9,169.1,211.3,167.6z"/>
</g>
</svg>
