<?xml version="1.0" encoding="utf-8"?>
<!-- Generator: Adobe Illustrator 24.3.0, SVG Export Plug-In . SVG Version: 6.00 Build 0)  -->
<svg version="1.1" id="Layer_1" xmlns="http://www.w3.org/2000/svg" xmlns:xlink="http://www.w3.org/1999/xlink" x="0px" y="0px"
	 viewBox="0 0 564.6 242.7" style="enable-background:new 0 0 564.6 242.7;" xml:space="preserve">
<style type="text/css">
	.st0{fill:#00DDFD;}
</style>
<g>
	<g id="Header_Logo_Text_Group">
		<path d="M124.8,222.9h-7.2v10.5h-3.4v-29.8h11.2c6.7,0,11.2,3.6,11.2,9.5C136.5,219.6,131.2,222.9,124.8,222.9L124.8,222.9z
			 M125.1,206.8h-7.5v13h7.4c4.9,0,8.2-2.6,8.2-6.6C133.1,208.9,129.9,206.8,125.1,206.8L125.1,206.8z"/>
		<path d="M174,206.8h-18.2v10h16.3v3.1h-16.3v10.4h18.4v3.1h-21.8v-29.8H174V206.8L174,206.8z"/>
		<path d="M211.3,233.4l-8.7-11.6h-8.5v11.6h-3.4v-29.8h12.9c6.6,0,10.8,3.5,10.8,8.9c0,5-3.4,7.9-8.1,8.7l9.2,12.2L211.3,233.4
			L211.3,233.4z M203.4,206.8h-9.2v12h9.2c4.5,0,7.7-2.3,7.7-6.2C211,208.8,208.2,206.8,203.4,206.8L203.4,206.8z"/>
		<path d="M242,222.9h-7.2v10.5h-3.4v-29.8h11.2c6.7,0,11.2,3.6,11.2,9.5C253.8,219.6,248.4,222.9,242,222.9L242,222.9z
			 M242.3,206.8h-7.5v13h7.4c4.9,0,8.2-2.6,8.2-6.6C250.3,208.9,247.1,206.8,242.3,206.8z"/>
		<path d="M291.2,206.8H273v10h16.3v3.1H273v10.4h18.4v3.1h-21.8v-29.8h21.6V206.8L291.2,206.8z"/>
		<path d="M319.3,233.4h-3.4v-26.7h-10v-3.1h23.4v3.1h-10L319.3,233.4L319.3,233.4z"/>
		<path d="M369.8,220.3c0,8.7-5,13.2-12.4,13.2S345,229,345,220.6v-16.9h3.4v16.7c0,6.4,3.4,10.1,9.1,10.1s9-3.3,9-9.8v-16.9h3.4
			L369.8,220.3L369.8,220.3z"/>
		<path d="M414.3,233.4h-3.6l-3.5-7.9H391l-3.5,7.9H384l13.6-30h3.2L414.3,233.4z M399.1,207.3l-6.8,15.2h13.6L399.1,207.3
			L399.1,207.3z"/>
		<path d="M430,203.6h3.4v26.7h16.8v3.1H430L430,203.6L430,203.6z"/>
		<path d="M250.9,78.6c0-19.3,10.4-30.4,29.5-30.4s29.5,11,29.5,30.4v62.8c0,19.3-10.4,30.4-29.5,30.4s-29.5-11-29.5-30.4V78.6z
			 M270.4,142.3c0,8.6,3.8,11.8,9.9,11.8s9.9-3.3,9.9-11.8V77.7c0-8.6-3.8-11.8-9.9-11.8s-9.9,3.3-9.9,11.8V142.3z"/>
		<path d="M344,82.2v89.6h-19.6V48.1h26.4l19.9,74v-74h19.6v123.5h-22.2L344,82.2L344,82.2z"/>
		<path d="M404.9,48.1h19.5V154h31.8v17.8h-51.4L404.9,48.1L404.9,48.1z"/>
		<path d="M473.2,130.8l-24.5-82.5H469l14.8,56.3l14.8-56.3h18.5l-24.5,82.5v41h-19.5L473.2,130.8L473.2,130.8z"/>
		<path d="M27.7,65.8H7.3V48.1h60.3v17.7H47.2v106H27.7V65.8L27.7,65.8z"/>
		<path d="M84.4,48.1h19.5V101h21V48.1h19.5v123.5h-19.5v-52.9h-21v52.9H84.4C84.4,171.8,84.4,48.1,84.4,48.1z"/>
		<path d="M161,48.1h53.3v17.7h-33.7v35.3h26.8v17.7h-26.8V154h33.8v17.8h-53.3L161,48.1L161,48.1z"/>
	</g>
</g>
<path id="BLUE_LOGO" class="st0" d="M503.4,9.2v16.5c0,3,2.4,5.5,5.5,5.5h26.3v26.3c0,3,2.4,5.5,5.5,5.5h16.5V9.3L503.4,9.2
	L503.4,9.2z"/>
</svg>
