<?xml version="1.0" encoding="utf-8"?>
<!-- Generator: Adobe Illustrator 24.3.0, SVG Export Plug-In . SVG Version: 6.00 Build 0)  -->
<svg version="1.1" id="Layer_1" xmlns="http://www.w3.org/2000/svg" xmlns:xlink="http://www.w3.org/1999/xlink" x="0px" y="0px"
	 viewBox="0 0 1919.2 1080" style="enable-background:new 0 0 1919.2 1080;" xml:space="preserve">
<style type="text/css">
	.st0{fill:none;stroke:#00DDFD;stroke-miterlimit:10;}
	.st1{fill:#00DDFD;}
</style>
<rect y="1" width="1919.2" height="1080"/>
<path id="BLUE_LOGO_1_" class="st0" d="M594.6,638.8l111.9,111.9c20.4,20.4,53.6,21,74.6,0l178.4-178.4L1138,750.7
	c20.4,20.4,53.6,21,74.6,0l111.9-111.9L960.3,274.4l-365,365L594.6,638.8z"/>
<path id="BLUE_LOGO_2_" class="st0" d="M1398.2,579.8l56.2,56.2c10.2,10.2,26.9,10.6,37.5,0l89.5-89.5l89.5,89.5
	c10.2,10.2,26.9,10.6,37.5,0l56.2-56.2L1581.8,397l-183.2,183.2L1398.2,579.8z"/>
<path id="BLUE_LOGO_3_" class="st0" d="M124,579.8l56.2,56.2c10.2,10.2,26.9,10.6,37.5,0l89.5-89.5l89.5,89.5
	c10.2,10.2,26.9,10.6,37.5,0l56.2-56.2L307.5,396.9L124.3,580.1L124,579.8z"/>
<g id="Perpeetual_Group">
	<path d="M999.4-126.4h-7.2v10.4h-3.4v-29.5h11.2c6.7,0,11.2,3.6,11.2,9.4C1011.1-129.7,1005.8-126.4,999.4-126.4L999.4-126.4z
		 M999.7-142.3h-7.5v12.9h7.4c4.9,0,8.2-2.6,8.2-6.5C1007.7-140.2,1004.5-142.3,999.7-142.3L999.7-142.3z"/>
	<path d="M1048.5-142.3h-18.2v9.9h16.3v3.1h-16.3v10.3h18.4v3.1H1027v-29.5h21.6V-142.3L1048.5-142.3z"/>
	<path d="M1085.8-116l-8.7-11.5h-8.5v11.5h-3.4v-29.5h12.9c6.6,0,10.8,3.5,10.8,8.8c0,5-3.4,7.8-8.1,8.6l9.2,12.1L1085.8-116
		L1085.8-116z M1077.9-142.3h-9.2v11.9h9.2c4.5,0,7.7-2.3,7.7-6.1C1085.5-140.3,1082.7-142.3,1077.9-142.3L1077.9-142.3z"/>
	<path d="M1116.5-126.4h-7.2v10.4h-3.4v-29.5h11.2c6.7,0,11.2,3.6,11.2,9.4C1128.3-129.7,1122.9-126.4,1116.5-126.4L1116.5-126.4z
		 M1116.8-142.3h-7.5v12.9h7.4c4.9,0,8.2-2.6,8.2-6.5C1124.8-140.2,1121.6-142.3,1116.8-142.3z"/>
	<path d="M1165.6-142.3h-18.2v9.9h16.3v3.1h-16.3v10.3h18.4v3.1h-21.8v-29.5h21.6V-142.3L1165.6-142.3z"/>
	<path d="M1193.7-116h-3.4v-26.4h-10v-3.1h23.4v3.1h-10V-116L1193.7-116z"/>
	<path d="M1244.2-129c0,8.6-5,13.1-12.4,13.1s-12.4-4.5-12.4-12.8v-16.7h3.4v16.5c0,6.3,3.4,10,9.1,10c5.7,0,9-3.3,9-9.7v-16.7h3.4
		L1244.2-129L1244.2-129z"/>
	<path d="M1288.6-116h-3.6l-3.5-7.8h-16.2l-3.5,7.8h-3.5l13.6-29.7h3.2L1288.6-116z M1273.4-141.8l-6.8,15h13.6L1273.4-141.8
		L1273.4-141.8z"/>
	<path d="M1304.3-145.5h3.4v26.4h16.8v3.1h-20.2L1304.3-145.5L1304.3-145.5z"/>
</g>
<g id="Only_Group">
	<path d="M625.2-209.2c0-19.3,10.4-30.4,29.5-30.4s29.5,11,29.5,30.4v62.8c0,19.3-10.4,30.4-29.5,30.4s-29.5-11-29.5-30.4V-209.2z
		 M644.7-145.5c0,8.6,3.8,11.8,9.9,11.8s9.9-3.3,9.9-11.8v-64.6c0-8.6-3.8-11.8-9.9-11.8s-9.9,3.3-9.9,11.8V-145.5z"/>
	<path d="M718.3-205.6v89.6h-19.6v-123.7h26.4l19.9,74v-74h19.6v123.5h-22.2L718.3-205.6L718.3-205.6z"/>
	<path d="M779.2-239.7h19.5v105.9h31.8v17.8h-51.4L779.2-239.7L779.2-239.7z"/>
	<path d="M847.5-157L823-239.5h20.3l14.8,56.3l14.8-56.3h18.5L866.9-157v41h-19.5L847.5-157L847.5-157z"/>
</g>
<g id="The_Group">
	<path d="M345.1-199.5h-20.4v-17.7H385v17.7h-20.4v106h-19.5V-199.5L345.1-199.5z"/>
	<path d="M401.8-217.2h19.5v52.9h21v-52.9h19.5v123.5h-19.5v-52.9h-21v52.9h-19.5C401.8-93.5,401.8-217.2,401.8-217.2z"/>
	<path d="M478.4-217.2h53.3v17.7H498v35.3h26.8v17.7H498v35.2h33.8v17.8h-53.3L478.4-217.2L478.4-217.2z"/>
</g>
<path id="BLUE_LOGO" class="st1" d="M1680.1-423.8l-66.2,66.2c-12,12-12.4,31.7,0,44.1l105.6,105.6l-105.6,105.6
	c-12,12-12.4,31.7,0,44.1l66.2,66.2l215.5-215.5L1680.1-423.8L1680.1-423.8z"/>
</svg>
