<?xml version="1.0" encoding="utf-8"?>
<!-- Generator: Adobe Illustrator 24.3.0, SVG Export Plug-In . SVG Version: 6.00 Build 0)  -->
<svg version="1.1" id="Layer_1" xmlns="http://www.w3.org/2000/svg" xmlns:xlink="http://www.w3.org/1999/xlink" x="0px" y="0px"
	 viewBox="0 0 608.1 608.2" style="enable-background:new 0 0 608.1 608.2;" xml:space="preserve">
<style type="text/css">
	.st0{display:none;}
	.st1{display:inline;fill:#EBEAEA;}
	.st2{display:inline;fill:#FFFFFF;}
	.st3{filter:url(#Adobe_OpacityMaskFilter);}
	.st4{display:none;mask:url(#SVGID_1_);}
	.st5{display:none;fill:#FFFFFF;}
	.st6{display:none;fill:#CDCDCD;}
	.st7{display:none;fill:#797979;}
	.st8{fill:#EEF7FD;}
	.st9{filter:url(#Adobe_OpacityMaskFilter_1_);}
	.st10{filter:url(#Adobe_OpacityMaskFilter_2_);}
	.st11{mask:url(#SVGID_2_);fill:url(#SVGID_3_);}
	.st12{filter:url(#Adobe_OpacityMaskFilter_3_);}
	.st13{filter:url(#Adobe_OpacityMaskFilter_4_);}
	.st14{mask:url(#SVGID_4_);fill:url(#SVGID_5_);}
	.st15{fill:url(#SVGID_6_);}
	.st16{filter:url(#Adobe_OpacityMaskFilter_5_);}
	.st17{filter:url(#Adobe_OpacityMaskFilter_6_);}
	.st18{mask:url(#SVGID_7_);fill:url(#SVGID_8_);}
	.st19{filter:url(#Adobe_OpacityMaskFilter_7_);}
	.st20{filter:url(#Adobe_OpacityMaskFilter_8_);}
	.st21{mask:url(#SVGID_9_);fill:url(#SVGID_10_);}
	.st22{fill:url(#SVGID_11_);}
</style>
<g>
	<g>
		<g id="Right_Hand_Group" class="st0">
			
				<image style="display:inline;overflow:visible;" width="191" height="163" xlink:href="72FF12B1.png"  transform="matrix(1 0 0 1 557 222)">
			</image>
			<polygon class="st1" points="638.4,286.5 670.3,265.2 618.3,314 			"/>
			<path class="st1" d="M675.7,246.9v6.7c0,0,22.8-17.2,32.8-19.2c0,0,2.6-7.8-5-5.7C695.9,231,675.7,246.9,675.7,246.9z"/>
			<polygon class="st1" points="725.2,249.6 727.8,257.3 734.7,259.6 732,248.5 			"/>
		</g>
		<g id="Left_Hand_Group" class="st0">
			
				<image style="display:inline;overflow:visible;" width="168" height="185" xlink:href="72FF12B3.png"  transform="matrix(1 0 0 1 -113 326)">
			</image>
			<circle class="st2" cx="-82" cy="474.4" r="3.4"/>
			<path class="st2" d="M-96.4,468.9c1.1,8.3,32.4-19.9,46.4-38.7c14-18.8,37.3-57.8,37.3-57.8s-43.3,43.3-57.7,58.8
				C-84.7,446.7-97.7,459.5-96.4,468.9z"/>
		</g>
		
			<image style="display:none;overflow:visible;" width="583" height="583" xlink:href="72FF12B6.png"  transform="matrix(1 0 0 1 11 14)">
		</image>
		<defs>
			<filter id="Adobe_OpacityMaskFilter" filterUnits="userSpaceOnUse" x="66" y="162" width="473" height="282">
				<feFlood  style="flood-color:white;flood-opacity:1" result="back"/>
				<feBlend  in="SourceGraphic" in2="back" mode="normal"/>
			</filter>
		</defs>
		<mask maskUnits="userSpaceOnUse" x="66" y="162" width="473" height="282" id="SVGID_1_">
			<g class="st3">
				
					<image style="overflow:visible;" width="117.9" height="70.4" xlink:href="A7379E3.png"  transform="matrix(1 0 0 1 -198.6521 -215.104)"/>
			</g>
		</mask>
		<g class="st4">
			<g style="display:inline;">
				<image style="overflow:visible;" width="473" height="282" xlink:href="72FF12B7.png"  transform="matrix(1 0 0 1 66 162)">
				</image>
			</g>
		</g>
		
			<image style="display:none;overflow:visible;" width="437" height="248" xlink:href="72FF12B2.png"  transform="matrix(1 0 0 1 84 179)">
		</image>
		<path class="st5" d="M141.2,131.9l55.7,8.2c0,0,47.6-28.4,142.7-34.4c0,0-12.4-38.7-32.6-49C307,56.7,201.9,58.1,141.2,131.9z"/>
		<path class="st5" d="M100.4,405.2c0,0,18.5,17.6,40.1,22.7c21.6,5.1,74,9,74,9l9.8,4.8c0,0-39.2,1.6-78.2-6
			C107,428.1,100.4,405.2,100.4,405.2z"/>
		<polygon class="st5" points="173.7,441.9 171.1,445.8 208,450.6 210.7,444.7 		"/>
		<path class="st5" d="M85.1,196.4c0,0,13.6-21.7,32.9-30.4c19.8-8.9,68.6-17.8,100.1-16.7l-0.2,9.9
			C217.8,159.3,121.5,158.6,85.1,196.4z"/>
		<path class="st5" d="M452.8,158.7l13,11.5c0,0,26.1,10.3,36,20.8c10.7,11.3,24.8,35.3,29.1,52.2c0,0,1.6-21.6-16.7-44.5
			c-18.3-22.9-27.1-31.8-27.1-31.8S465.4,157.1,452.8,158.7z"/>
		<path class="st6" d="M119.1,238.6c0,0-8.4,33.5-11,66.8c0,0,9.2-23.9,22.6-36l5.4-50.2C136.1,219.2,126.8,216.2,119.1,238.6z"/>
		<path class="st7" d="M142.7,210.8l53.9,4.7c0,0,45.5-16.2,143-14.7l-8.3-5.4C331.3,195.4,160.6,189.1,142.7,210.8z"/>
		<path class="st5" d="M452.8,231.7l26.7-1.7c0,0,9,13.6,7.6,32.5l-27.9-2.6C459.2,259.8,458.5,243.7,452.8,231.7z"/>
		<path id="Eye_White_Left" class="st8" d="M188.7,364L188.7,364c-13.2,0-23.9-10.7-23.9-23.9v-72.9c0-13.2,10.7-23.9,23.9-23.9l0,0
			c13.2,0,23.9,10.7,23.9,23.9v72.9C212.5,353.3,201.8,364,188.7,364z"/>
		<path id="Eye_White_Right" class="st8" d="M415.8,364L415.8,364c-13.2,0-23.9-10.7-23.9-23.9v-72.9c0-13.2,10.7-23.9,23.9-23.9
			l0,0c13.2,0,23.9,10.7,23.9,23.9v72.9C439.7,353.3,429,364,415.8,364z"/>
		<defs>
			<filter id="Adobe_OpacityMaskFilter_1_" filterUnits="userSpaceOnUse" x="333.9" y="181.9" width="163.8" height="250.3">
				<feFlood  style="flood-color:white;flood-opacity:1" result="back"/>
				<feBlend  in="SourceGraphic" in2="back" mode="normal"/>
			</filter>
		</defs>
		<mask maskUnits="userSpaceOnUse" x="333.9" y="181.9" width="163.8" height="250.3" id="SVGID_2_">
			<g class="st9">
				<defs>
					<filter id="Adobe_OpacityMaskFilter_2_" filterUnits="userSpaceOnUse" x="-131.9" y="-210.2" width="40.9" height="62.6">
						<feFlood  style="flood-color:white;flood-opacity:1" result="back"/>
						<feBlend  in="SourceGraphic" in2="back" mode="normal"/>
					</filter>
				</defs>
				<mask maskUnits="userSpaceOnUse" x="-131.9" y="-210.2" width="40.9" height="62.6" id="SVGID_2_">
					<g class="st10">
					</g>
				</mask>
				
					<radialGradient id="SVGID_3_" cx="-111.3914" cy="410.4337" r="20.4722" gradientTransform="matrix(1 0 0 1.528 0 -806.0471)" gradientUnits="userSpaceOnUse">
					<stop  offset="0" style="stop-color:#FFFFFF"/>
					<stop  offset="0.1901" style="stop-color:#FFFFFF"/>
					<stop  offset="1" style="stop-color:#000000"/>
				</radialGradient>
				<ellipse class="st11" cx="-111.4" cy="-178.9" rx="20.5" ry="31.3"/>
			</g>
		</mask>
		<g>
			<defs>
				<filter id="Adobe_OpacityMaskFilter_3_" filterUnits="userSpaceOnUse" x="333.9" y="181.9" width="163.8" height="250.3">
					<feFlood  style="flood-color:white;flood-opacity:1" result="back"/>
					<feBlend  in="SourceGraphic" in2="back" mode="normal"/>
				</filter>
			</defs>
			<mask maskUnits="userSpaceOnUse" x="333.9" y="181.9" width="163.8" height="250.3" id="SVGID_4_">
				<g class="st12">
					<defs>
						<filter id="Adobe_OpacityMaskFilter_4_" filterUnits="userSpaceOnUse" x="333.9" y="181.9" width="163.8" height="250.3">
							<feFlood  style="flood-color:white;flood-opacity:1" result="back"/>
							<feBlend  in="SourceGraphic" in2="back" mode="normal"/>
						</filter>
					</defs>
					<mask maskUnits="userSpaceOnUse" x="333.9" y="181.9" width="163.8" height="250.3" id="SVGID_4_">
						<g class="st13">
						</g>
					</mask>
					
						<radialGradient id="SVGID_5_" cx="415.7606" cy="728.4805" r="81.8888" gradientTransform="matrix(1 0 0 1.528 0 -806.0471)" gradientUnits="userSpaceOnUse">
						<stop  offset="0" style="stop-color:#FFFFFF"/>
						<stop  offset="0.1901" style="stop-color:#FFFFFF"/>
						<stop  offset="1" style="stop-color:#000000"/>
					</radialGradient>
					<ellipse class="st14" cx="415.8" cy="307.1" rx="81.9" ry="125.1"/>
				</g>
			</mask>
			
				<radialGradient id="SVGID_6_" cx="415.7606" cy="728.4805" r="81.8888" gradientTransform="matrix(1 0 0 1.528 0 -806.0471)" gradientUnits="userSpaceOnUse">
				<stop  offset="0" style="stop-color:#FFFFFF"/>
				<stop  offset="0.1901" style="stop-color:#00DFFF"/>
				<stop  offset="1" style="stop-color:#231F20"/>
			</radialGradient>
			<ellipse class="st15" cx="415.8" cy="307.1" rx="81.9" ry="125.1"/>
		</g>
		<defs>
			<filter id="Adobe_OpacityMaskFilter_5_" filterUnits="userSpaceOnUse" x="106.8" y="181.9" width="163.8" height="250.3">
				<feFlood  style="flood-color:white;flood-opacity:1" result="back"/>
				<feBlend  in="SourceGraphic" in2="back" mode="normal"/>
			</filter>
		</defs>
		<mask maskUnits="userSpaceOnUse" x="106.8" y="181.9" width="163.8" height="250.3" id="SVGID_7_">
			<g class="st16">
				<defs>
					<filter id="Adobe_OpacityMaskFilter_6_" filterUnits="userSpaceOnUse" x="-188.6" y="-210.2" width="40.9" height="62.6">
						<feFlood  style="flood-color:white;flood-opacity:1" result="back"/>
						<feBlend  in="SourceGraphic" in2="back" mode="normal"/>
					</filter>
				</defs>
				<mask maskUnits="userSpaceOnUse" x="-188.6" y="-210.2" width="40.9" height="62.6" id="SVGID_7_">
					<g class="st17">
					</g>
				</mask>
				
					<radialGradient id="SVGID_8_" cx="-168.1687" cy="410.4337" r="20.4722" gradientTransform="matrix(1 0 0 1.528 0 -806.0471)" gradientUnits="userSpaceOnUse">
					<stop  offset="0" style="stop-color:#FFFFFF"/>
					<stop  offset="0.1901" style="stop-color:#FFFFFF"/>
					<stop  offset="1" style="stop-color:#000000"/>
				</radialGradient>
				<ellipse class="st18" cx="-168.2" cy="-178.9" rx="20.5" ry="31.3"/>
			</g>
		</mask>
		<g>
			<defs>
				<filter id="Adobe_OpacityMaskFilter_7_" filterUnits="userSpaceOnUse" x="106.8" y="181.9" width="163.8" height="250.3">
					<feFlood  style="flood-color:white;flood-opacity:1" result="back"/>
					<feBlend  in="SourceGraphic" in2="back" mode="normal"/>
				</filter>
			</defs>
			<mask maskUnits="userSpaceOnUse" x="106.8" y="181.9" width="163.8" height="250.3" id="SVGID_9_">
				<g class="st19">
					<defs>
						<filter id="Adobe_OpacityMaskFilter_8_" filterUnits="userSpaceOnUse" x="106.8" y="181.9" width="163.8" height="250.3">
							<feFlood  style="flood-color:white;flood-opacity:1" result="back"/>
							<feBlend  in="SourceGraphic" in2="back" mode="normal"/>
						</filter>
					</defs>
					<mask maskUnits="userSpaceOnUse" x="106.8" y="181.9" width="163.8" height="250.3" id="SVGID_9_">
						<g class="st20">
						</g>
					</mask>
					
						<radialGradient id="SVGID_10_" cx="188.6513" cy="728.4805" r="81.8888" gradientTransform="matrix(1 0 0 1.528 0 -806.0471)" gradientUnits="userSpaceOnUse">
						<stop  offset="0" style="stop-color:#FFFFFF"/>
						<stop  offset="0.1901" style="stop-color:#FFFFFF"/>
						<stop  offset="1" style="stop-color:#000000"/>
					</radialGradient>
					<ellipse class="st21" cx="188.7" cy="307.1" rx="81.9" ry="125.1"/>
				</g>
			</mask>
			
				<radialGradient id="SVGID_11_" cx="188.6513" cy="728.4805" r="81.8888" gradientTransform="matrix(1 0 0 1.528 0 -806.0471)" gradientUnits="userSpaceOnUse">
				<stop  offset="0" style="stop-color:#FFFFFF"/>
				<stop  offset="0.1901" style="stop-color:#00DFFF"/>
				<stop  offset="1" style="stop-color:#231F20"/>
			</radialGradient>
			<ellipse class="st22" cx="188.7" cy="307.1" rx="81.9" ry="125.1"/>
		</g>
	</g>
</g>
</svg>
