<?xml version="1.0" encoding="utf-8"?>
<!-- Generator: Adobe Illustrator 24.3.0, SVG Export Plug-In . SVG Version: 6.00 Build 0)  -->
<svg version="1.1" id="Layer_1" xmlns="http://www.w3.org/2000/svg" xmlns:xlink="http://www.w3.org/1999/xlink" x="0px" y="0px"
	 viewBox="0 0 1919.2 1080" style="enable-background:new 0 0 1919.2 1080;" xml:space="preserve">
<style type="text/css">
	.st0{fill:#FFFFFF;}
</style>
<g>
	<path class="st0" d="M673.8,724.5h-13.1v19.1h-6.1v-54.2h20.3c12.2,0,20.3,6.5,20.3,17.3C695.1,718.4,685.4,724.5,673.8,724.5
		L673.8,724.5z M674.4,695.1h-13.7v23.8H674c9,0,14.9-4.8,14.9-12C688.9,699.1,683.1,695.1,674.4,695.1L674.4,695.1z"/>
	<path class="st0" d="M763.2,695h-33v18.5h29.6v5.6h-29.6v19h33.4v5.6h-39.5v-54.2h39.2L763.2,695L763.2,695z"/>
	<path class="st0" d="M831,743.6l-15.7-21.1h-15.5v21.1h-6.1v-54.2H817c11.9,0,19.6,6.4,19.6,16.2c0,9.1-6.2,14.3-14.7,15.9
		l16.6,22.1H831z M816.5,695.1h-16.7v22h16.6c8.1,0,13.9-4.2,13.9-11.2C830.4,698.8,825.3,695.1,816.5,695.1L816.5,695.1z"/>
	<path class="st0" d="M886.7,724.5h-13.1v19.1h-6.1v-54.2h20.3c12.2,0,20.3,6.5,20.3,17.3C908,718.4,898.2,724.5,886.7,724.5
		L886.7,724.5z M887.2,695.1h-13.7v23.8h13.4c9,0,14.9-4.8,14.9-12C901.8,699.1,896,695.1,887.2,695.1z"/>
	<path class="st0" d="M976,695h-33v18.5h29.6v5.6H943v19h33.4v5.6h-39.5v-54.2h39.2L976,695L976,695z"/>
	<path class="st0" d="M1027,743.6h-6.2v-48.5h-18.2v-5.6h42.6v5.6H1027L1027,743.6L1027,743.6z"/>
	<path class="st0" d="M1118.7,719.6c0,15.8-9.1,24-22.6,24s-22.5-8.2-22.5-23.5v-30.6h6.1v30.3c0,11.7,6.2,18.3,16.6,18.3
		s16.3-6,16.3-17.9v-30.6h6.1L1118.7,719.6L1118.7,719.6z"/>
	<path class="st0" d="M1199.5,743.6h-6.6l-6.3-14.3h-29.5l-6.4,14.3h-6.3l24.7-54.6h5.7L1199.5,743.6z M1171.9,696.2l-12.4,27.6
		h24.7L1171.9,696.2L1171.9,696.2z"/>
	<path class="st0" d="M1228,689.4h6.1v48.5h30.5v5.6H1228V689.4L1228,689.4z"/>
	<path class="st0" d="M497.4,439.1h-37.1v-32.1H570v32.1h-37.1v192.3h-35.5L497.4,439.1L497.4,439.1z"/>
	<path class="st0" d="M600.4,407.1h35.5v96.1H674v-96.1h35.5v224.3H674v-96.1h-38.1v96.1h-35.5C600.4,631.4,600.4,407.1,600.4,407.1
		z"/>
	<path class="st0" d="M739.6,407.1h96.8v32.1h-61.3v64.1h48.7v32.1h-48.7v63.9h61.3v32.3h-96.8V407.1z"/>
	<path class="st0" d="M902.7,462.2c0-35.1,18.9-55.2,53.5-55.2s53.5,20.1,53.5,55.2v114.1c0,35.1-18.9,55.2-53.5,55.2
		s-53.5-20.1-53.5-55.2V462.2z M938.2,578c0,15.5,7,21.4,18,21.4c11.1,0,18-5.9,18-21.4V460.6c0-15.5-7-21.4-18-21.4
		c-11.1,0-18,5.9-18,21.4V578z"/>
	<path class="st0" d="M1071.9,469v162.5h-35.5V407.1h48l36.2,134.3V407.1h35.5v224.3h-40.3L1071.9,469L1071.9,469z"/>
	<path class="st0" d="M1182.4,407.1h35.5v192.3h57.8v32.1h-93.3V407.1L1182.4,407.1z"/>
	<path class="st0" d="M1306.4,557L1262,407.1h36.9l26.9,102.2l26.9-102.2h33.7L1341.9,557v74.5h-35.5L1306.4,557L1306.4,557z"/>
	<path id="BLUE_LOGO" class="st0" d="M1361.3,336.4v30c0,5.5,4.4,9.9,9.9,9.9h47.7V424c0,5.5,4.4,9.9,9.9,9.9h30v-97.6H1361.3
		L1361.3,336.4z"/>
</g>
</svg>
