<?xml version="1.0" encoding="utf-8"?>
<!-- Generator: Adobe Illustrator 24.3.0, SVG Export Plug-In . SVG Version: 6.00 Build 0)  -->
<svg version="1.1" id="Layer_1" xmlns="http://www.w3.org/2000/svg" xmlns:xlink="http://www.w3.org/1999/xlink" x="0px" y="0px"
	 viewBox="0 0 1919.2 1080" style="enable-background:new 0 0 1919.2 1080;" xml:space="preserve">
<style type="text/css">
	.st0{fill:#FFFFFF;}
	.st1{fill:#00DDFD;}
</style>
<g id="Text_x5F_Group">
	<path class="st0" d="M497.4,439.1h-37.1V407H570v32.1h-37.1v192.3h-35.5L497.4,439.1L497.4,439.1z"/>
	<path class="st0" d="M600.4,407.1h35.5v96.1H674v-96.1h35.5v224.3H674v-96.1h-38.1v96.1h-35.5V407.1z"/>
	<path class="st0" d="M739.6,407.1h96.8v32.1h-61.3v64.1h48.7v32.1h-48.7v63.9h61.3v32.3h-96.8V407.1z"/>
	<path class="st0" d="M902.7,462.2c0-35.1,18.9-55.2,53.5-55.2s53.5,20.1,53.5,55.2v114.1c0,35.1-18.9,55.2-53.5,55.2
		s-53.5-20.1-53.5-55.2V462.2z M938.2,578c0,15.5,7,21.4,18,21.4c11.1,0,18-5.9,18-21.4V460.6c0-15.5-7-21.4-18-21.4
		c-11.1,0-18,5.9-18,21.4V578z"/>
	<path class="st0" d="M1071.9,469v162.5h-35.5V407.1h48l36.2,134.3V407.1h35.5v224.3h-40.3L1071.9,469L1071.9,469z"/>
	<path class="st0" d="M1182.4,407.1h35.5v192.3h57.8v32.1h-93.3V407.1L1182.4,407.1z"/>
	<path class="st0" d="M1306.4,557L1262,407.1h36.9l26.9,102.2l26.9-102.2h33.7L1341.9,557v74.5h-35.5V557L1306.4,557z"/>
	<path class="st0" d="M783.8,737.7h-6.5l-6.3-14.2h-29.2l-6.4,14.2h-6.2l24.5-54.1h5.7L783.8,737.7z M756.4,690.7l-12.3,27.4h24.5
		L756.4,690.7z"/>
	<path class="st0" d="M838.7,738.6c-16.9,0-27.3-12.3-27.3-27.7c0-14.8,10.8-27.9,26.9-27.9c9.1,0,14.7,2.6,20,7.1l-3.9,4.6
		c-4.1-3.6-8.8-6.1-16.3-6.1c-11.9,0-20.4,10.1-20.4,22.1c0,12.9,8.2,22.4,21.3,22.4c6.1,0,11.8-2.4,15.5-5.4v-13.4h-16.3V709h22.2
		v21.4C855.3,734.9,847.8,738.6,838.7,738.6z"/>
	<path class="st0" d="M935.3,689.5h-32.8v18.3h29.3v5.5h-29.3v18.8h33.2v5.5h-39.2V684h38.8V689.5z"/>
	<path class="st0" d="M1010,684h5.9v53.7h-4.8l-34.7-44.1v44.1h-5.9V684h5.7l33.8,43V684z"/>
	<path class="st0" d="M1078.2,738.6c-15.5,0-26.9-12.2-26.9-27.7c0-15.4,11.4-27.9,27.2-27.9c9.7,0,15.6,3.5,21,8.5l-4.1,4.5
		c-4.5-4.3-9.6-7.4-16.9-7.4c-11.9,0-20.8,9.6-20.8,22.1s9,22.3,20.8,22.3c7.4,0,12.2-2.8,17.3-7.8l4,3.9
		C1094,734.9,1087.9,738.6,1078.2,738.6z"/>
	<path class="st0" d="M1160.9,737.7h-6.1v-21.3l-22.3-32.5h7.4l18.1,26.9l18.3-26.9h7.1l-22.3,32.4v21.4H1160.9z"/>
</g>
<path id="Blue_Logo" class="st1" d="M1361.3,336.4v30c0,5.5,4.4,9.9,9.9,9.9h47.7V424c0,5.5,4.4,9.9,9.9,9.9h30v-97.6h-97.5V336.4z"
	/>
</svg>
