<?xml version="1.0" encoding="utf-8"?>
<!-- Generator: Adobe Illustrator 24.3.0, SVG Export Plug-In . SVG Version: 6.00 Build 0)  -->
<svg version="1.1" id="Layer_1" xmlns="http://www.w3.org/2000/svg" xmlns:xlink="http://www.w3.org/1999/xlink" x="0px" y="0px"
	 viewBox="0 0 1919.2 1080" style="enable-background:new 0 0 1919.2 1080;" xml:space="preserve">
<style type="text/css">
	.st0{fill:#FFFFFF;}
	.st1{fill:#00DDFD;}
</style>
<g id="LOGO_GROUP">
	<g id="PERPETUAL_LETTERS_GROUP">
		<path class="st0" d="M822.2,622.1H815v10.5h-3.4v-29.8h11.2c6.7,0,11.2,3.6,11.2,9.5C833.9,618.8,828.6,622.1,822.2,622.1
			L822.2,622.1z M822.5,605.9H815V619h7.4c4.9,0,8.2-2.6,8.2-6.6C830.5,608.1,827.3,605.9,822.5,605.9L822.5,605.9z"/>
		<path class="st0" d="M871.4,605.9h-18.2V616h16.3v3.1h-16.3v10.4h18.4v3.1h-21.8v-29.8h21.6L871.4,605.9L871.4,605.9z"/>
		<path class="st0" d="M908.7,632.6l-8.7-11.6h-8.5v11.6h-3.4v-29.8H901c6.6,0,10.8,3.5,10.8,8.9c0,5-3.4,7.9-8.1,8.7l9.2,12.2
			H908.7z M900.8,605.9h-9.2V618h9.2c4.5,0,7.7-2.3,7.7-6.2C908.4,608,905.6,605.9,900.8,605.9L900.8,605.9z"/>
		<path class="st0" d="M939.4,622.1h-7.2v10.5h-3.4v-29.8H940c6.7,0,11.2,3.6,11.2,9.5C951.2,618.8,945.8,622.1,939.4,622.1
			L939.4,622.1z M939.7,605.9h-7.5V619h7.4c4.9,0,8.2-2.6,8.2-6.6C947.7,608.1,944.5,605.9,939.7,605.9z"/>
		<path class="st0" d="M988.6,605.9h-18.2V616h16.3v3.1h-16.3v10.4h18.4v3.1h-21.8v-29.8h21.6L988.6,605.9L988.6,605.9z"/>
		<path class="st0" d="M1016.7,632.6h-3.4v-26.7h-10v-3.1h23.4v3.1h-10L1016.7,632.6L1016.7,632.6z"/>
		<path class="st0" d="M1067.2,619.4c0,8.7-5,13.2-12.4,13.2s-12.4-4.5-12.4-12.9v-16.9h3.4v16.7c0,6.4,3.4,10.1,9.1,10.1
			c5.7,0,9-3.3,9-9.8v-16.9h3.4L1067.2,619.4L1067.2,619.4z"/>
		<path class="st0" d="M1111.7,632.6h-3.6l-3.5-7.9h-16.2l-3.5,7.9h-3.5l13.6-30h3.2L1111.7,632.6z M1096.5,606.5l-6.8,15.2h13.6
			L1096.5,606.5L1096.5,606.5z"/>
		<path class="st0" d="M1127.4,602.8h3.4v26.7h16.8v3.1h-20.2V602.8L1127.4,602.8z"/>
	</g>
	<g id="TOP_GROUP">
		<g id="THE_ONLY_LETTERS_GROUP">
			<path class="st0" d="M725.1,465h-20.4v-17.7H765V465h-20.4v105.9h-19.5L725.1,465L725.1,465z"/>
			<path class="st0" d="M781.8,447.3h19.5v52.9h21v-52.9h19.5v123.5h-19.5v-52.9h-21v52.9h-19.5
				C781.8,570.9,781.8,447.3,781.8,447.3z"/>
			<path class="st0" d="M858.4,447.3h53.3V465H878v35.3h26.8v17.7H878v35.2h33.8v17.8h-53.3V447.3z"/>
			<path class="st0" d="M948.3,477.7c0-19.3,10.4-30.4,29.5-30.4s29.5,11,29.5,30.4v62.8c0,19.3-10.4,30.4-29.5,30.4
				s-29.5-11-29.5-30.4V477.7z M967.8,541.4c0,8.6,3.8,11.8,9.9,11.8s9.9-3.3,9.9-11.8v-64.6c0-8.6-3.8-11.8-9.9-11.8
				s-9.9,3.3-9.9,11.8V541.4z"/>
			<path class="st0" d="M1041.4,481.4v89.5h-19.6V447.3h26.4l19.9,74v-74h19.6v123.5h-22.2L1041.4,481.4L1041.4,481.4z"/>
			<path class="st0" d="M1102.3,447.3h19.5v105.9h31.8v17.7h-51.4V447.3L1102.3,447.3z"/>
			<path class="st0" d="M1170.6,529.9l-24.5-82.5h20.3l14.8,56.3l14.8-56.3h18.5l-24.5,82.5v41h-19.5L1170.6,529.9L1170.6,529.9z"/>
		</g>
	</g>
</g>
<path id="BLUE_LOGO" class="st1" d="M1200.8,408.4v16.5c0,3,2.4,5.5,5.5,5.5h26.3v26.3c0,3,2.4,5.5,5.5,5.5h16.5v-53.7H1200.8
	L1200.8,408.4z"/>
</svg>
